<?xml version="1.0" encoding="UTF-8"?>
<svg id="Calque_2" data-name="Calque 2" xmlns="http://www.w3.org/2000/svg" viewBox="0 0 105.98 91.84">
  <defs>
    <style>
      .cls-1 {
        fill: #f4d74c;
      }

      .cls-2 {
        fill: #fff;
      }

      .cls-3 {
        fill: #ca8634;
      }

      .cls-4 {
        fill: #424548;
      }

      .cls-5 {
        fill: #6eaade;
      }

      .cls-6 {
        fill: #4d7a99;
      }
    </style>
  </defs>
  <g id="Calque_1-2" data-name="Calque 1">
    <g>
      <path class="cls-5" d="m102.11,25.19s1.93-10.89-6.25-6.08c0,0-.79-11.17-7.64-3.29,0,0-3.67-6.81-7.75-.48-5.5,8.53-9.16,21.84-5.61,44.13l6.63-4.4c4.77-13.96,21.83-15.47,24.16-23.05,1.67-5.44-3.54-6.83-3.54-6.83Z"/>
      <path class="cls-5" d="m35.49,13.38l-17.55,6.44C21.82-1.39,47.31.02,47.31.02c0,0-11.91,5.65-11.82,13.36Z"/>
      <path class="cls-5" d="m38.34,17.33l-18.54,2.49C28.26-.04,52.82,6.85,52.82,6.85c0,0-12.87,2.93-14.48,10.48Z"/>
      <path class="cls-1" d="m0,33.47l9.57-2.55v6.37s-5.8-.86-9.57-3.82Z"/>
      <path class="cls-1" d="m9.57,30.93L0,26.09c6.4-4.95,13.56-3.42,13.56-3.42l-3.99,8.26Z"/>
      <path class="cls-3" d="m56.25,75.89h-3.72v13.91c-.59.1-3.8-.17-5.11-.17-3.26,0-5.9,2.21-5.9,2.21h14.72v-15.95h0Z"/>
      <path class="cls-3" d="m40.57,75.89h-3.72v13.91c-.59.1-3.8-.17-5.1-.17-3.26,0-5.9,2.21-5.9,2.21h14.72v-15.95Z"/>
      <path class="cls-5" d="m91.92,46.27c6.81,0-7.23,30.96-41.17,30.96-23.04,0-42.13-9.18-42.13-37.93,0-17.85,11.29-32.34,34.36-26.45,23.51,6,11.41,33.42,48.94,33.42Z"/>
      <path class="cls-2" d="m62.91,73.57c-27.51-.05-24.68-21.21-49.35-19.7,9.04,27.94,49.35,19.7,49.35,19.7Z"/>
      <path class="cls-6" d="m65.46,33.92c-17.68-17.3-35.69,10.95-13.88,22.17,21.4,11.01,35.99-8.52,35.99-8.52,0,0-10.75-2.53-22.11-13.65Z"/>
      <circle class="cls-4" cx="23.05" cy="26.36" r="4.42"/>
    </g>
  </g>
</svg>