<?xml version="1.0" encoding="UTF-8"?>
<svg id="Calque_2" data-name="Calque 2" xmlns="http://www.w3.org/2000/svg" viewBox="0 0 189.78 27.54">
  <defs>
    <style>
      .cls-1 {
        fill: #e6f3ff;
      }
    </style>
  </defs>
  <g id="Calque_1-2" data-name="Calque 1">
    <g>
      <path class="cls-1" d="m9.97,26.97V7.24H0V.57h21.31v6.68h-9.97v19.72h-1.37Z"/>
      <path class="cls-1" d="m29.24.57h19.23v6.68h-12.33v3.34h10.24v6.33h-10.24v3.38h12.33v6.68h-19.23V.57Z"/>
      <path class="cls-1" d="m77.67,16.99c.02,3.31-.92,5.9-2.84,7.76-1.92,1.86-4.56,2.79-7.93,2.79-2,0-3.84-.46-5.52-1.37-1.68-.91-3.02-2.2-4-3.87-.99-1.67-1.48-3.59-1.48-5.77v-5.54c0-2.15.47-4.06,1.42-5.73.95-1.67,2.25-2.96,3.91-3.89,1.66-.92,3.51-1.38,5.56-1.38,3.36,0,6,.92,7.91,2.75,1.91,1.83,2.88,4.42,2.9,7.76h-6.83c-.03-1.29-.37-2.29-1.04-3s-1.65-1.06-2.94-1.06c-1.16,0-2.12.37-2.88,1.1-.76.73-1.14,1.77-1.14,3.11v6.18c0,1.34.4,2.38,1.19,3.13.8.75,1.78,1.12,2.94,1.12,2.65,0,3.98-1.37,3.98-4.1h6.79Z"/>
      <path class="cls-1" d="m84.69,26.97V.57h1.4v12.48h17.52V.57h1.4v26.4h-1.4v-12.52h-17.52v12.52h-1.4Z"/>
      <path class="cls-1" d="m112.26.53h1.52l9.22,16.31L132.17.53h1.4v26.4h-21.31V.53Zm1.4,25.03h18.51V3.38l-8.53,15.02h-1.33l-8.65-15.25v22.42Z"/>
      <path class="cls-1" d="m163.42,26.97h-24.88L150.98,0l12.44,26.97Zm-22.68-1.4h20.48l-10.24-22.23-10.24,22.23Z"/>
      <path class="cls-1" d="m174.14,2.67c-1.45.85-2.61,2-3.47,3.45-.86,1.45-1.29,3.04-1.29,4.76v5.01c0,1.8.25,3.27.76,4.44.71,1.64,1.78,2.98,3.22,4.02,1.44,1.04,3.06,1.62,4.85,1.74v-12.33h11.57v2.5c0,1.62-.24,3.06-.72,4.32-.78,2.1-2.1,3.78-3.94,5.04-1.85,1.26-3.93,1.9-6.26,1.9-2.2,0-4.2-.6-6.01-1.8-1.81-1.2-3.13-2.8-3.96-4.8-.61-1.42-.91-3.1-.91-5.04v-5.01c0-1.97.49-3.79,1.46-5.46.97-1.67,2.29-2.99,3.96-3.96,1.67-.97,3.49-1.46,5.46-1.46,1.64,0,3.15.27,4.51.82,1.37.54,2.53,1.33,3.49,2.37.78.86,1.42,1.82,1.92,2.88s.74,2.14.74,3.22h-1.37c-.03-.94-.26-1.86-.7-2.77-.44-.91-1.01-1.73-1.69-2.47-1.69-1.77-4-2.65-6.9-2.65-1.69,0-3.27.42-4.72,1.27Zm14.24,12.46h-8.8v10.96c1.82-.13,3.46-.7,4.91-1.73,1.45-1.02,2.52-2.38,3.2-4.08.46-1.19.68-2.53.68-4.02v-1.14Z"/>
    </g>
  </g>
</svg>